<mxfile host="app.diagrams.net" modified="2022-02-18T09:12:13.464Z" agent="5.0 (Windows NT 10.0; Win64; x64) AppleWebKit/537.36 (KHTML, like Gecko) Chrome/98.0.4758.102 Safari/537.36" etag="T0FyZxJX2nF4RIke9pfo" version="16.5.6" type="github">
  <diagram id="DkxhXxDabkg7D8pgcrME" name="Page-1">
    <mxGraphModel dx="755" dy="1623" grid="0" gridSize="3.937" guides="1" tooltips="1" connect="1" arrows="1" fold="1" page="0" pageScale="1" pageWidth="827" pageHeight="1169" background="none" math="0" shadow="1">
      <root>
        <mxCell id="0" />
        <mxCell id="1" parent="0" />
        <mxCell id="hHE543pLZx1zD03s0N3J-19" value="Store Order Form" style="strokeWidth=1;shadow=0;dashed=0;align=center;html=1;shape=mxgraph.mockup.containers.window;align=left;verticalAlign=top;spacingLeft=8;strokeColor2=#008cff;strokeColor3=#c4c4c4;fontColor=#666666;mainText=;fontSize=17;labelBackgroundColor=none;" vertex="1" parent="1">
          <mxGeometry x="39.36999999999994" y="-181.10000000000002" width="976.376" height="704.723" as="geometry" />
        </mxCell>
        <mxCell id="hHE543pLZx1zD03s0N3J-157" value="Search by SKUID" style="strokeWidth=1;shadow=0;dashed=0;align=center;html=1;shape=mxgraph.mockup.forms.searchBox;strokeColor=#999999;mainText=;strokeColor2=#008cff;fontColor=#666666;fontSize=17;align=left;spacingLeft=3;" vertex="1" parent="1">
          <mxGeometry x="61.019999999999996" y="7.8700000000000045" width="338.59" height="30" as="geometry" />
        </mxCell>
        <mxCell id="hHE543pLZx1zD03s0N3J-160" value="" style="dashed=0;labelPosition=right;align=left;shape=mxgraph.gmdl.checkbox;strokeColor=#B0B0B0;fillColor=none;strokeWidth=2;aspect=fixed;sketch=0;" vertex="1" parent="1">
          <mxGeometry x="75.05" y="125.98" width="16" height="16" as="geometry" />
        </mxCell>
        <mxCell id="hHE543pLZx1zD03s0N3J-161" value="Search by PRODUCT NAME" style="strokeWidth=1;shadow=0;dashed=0;align=center;html=1;shape=mxgraph.mockup.forms.searchBox;strokeColor=#999999;mainText=;strokeColor2=#008cff;fontColor=#666666;fontSize=17;align=left;spacingLeft=3;" vertex="1" parent="1">
          <mxGeometry x="460.62699999999995" y="7.8670000000000115" width="338.59" height="30" as="geometry" />
        </mxCell>
        <mxCell id="hHE543pLZx1zD03s0N3J-162" value="" style="dashed=0;labelPosition=right;align=left;shape=mxgraph.gmdl.checkbox;strokeColor=#B0B0B0;fillColor=none;strokeWidth=2;aspect=fixed;sketch=0;" vertex="1" parent="1">
          <mxGeometry x="75.053" y="78.74" width="15.748" height="15.748" as="geometry" />
        </mxCell>
        <mxCell id="hHE543pLZx1zD03s0N3J-163" value="" style="dashed=0;labelPosition=right;align=left;shape=mxgraph.gmdl.checkbox;strokeColor=#B0B0B0;fillColor=none;strokeWidth=2;aspect=fixed;sketch=0;" vertex="1" parent="1">
          <mxGeometry x="75.05699999999999" y="200.787" width="16" height="16" as="geometry" />
        </mxCell>
        <mxCell id="hHE543pLZx1zD03s0N3J-164" value="" style="dashed=0;labelPosition=right;align=left;shape=mxgraph.gmdl.checkbox;strokeColor=#B0B0B0;fillColor=none;strokeWidth=2;aspect=fixed;sketch=0;" vertex="1" parent="1">
          <mxGeometry x="75.06399999999998" y="346.46400000000006" width="16" height="16" as="geometry" />
        </mxCell>
        <mxCell id="hHE543pLZx1zD03s0N3J-165" value="" style="dashed=0;labelPosition=right;align=left;shape=mxgraph.gmdl.checkbox;strokeColor=#B0B0B0;fillColor=none;strokeWidth=2;aspect=fixed;sketch=0;" vertex="1" parent="1">
          <mxGeometry x="75.05699999999999" y="271.65700000000004" width="16" height="16" as="geometry" />
        </mxCell>
        <mxCell id="hHE543pLZx1zD03s0N3J-167" value="" style="dashed=0;labelPosition=right;align=left;shape=mxgraph.gmdl.checkbox;strokeColor=#B0B0B0;fillColor=none;strokeWidth=2;aspect=fixed;sketch=0;" vertex="1" parent="1">
          <mxGeometry x="75.06399999999998" y="448.8140000000001" width="16" height="16" as="geometry" />
        </mxCell>
        <mxCell id="hHE543pLZx1zD03s0N3J-168" value="&lt;font style=&quot;font-size: 30px&quot;&gt;&lt;b&gt;STORE ORDER FORM&lt;/b&gt;&lt;/font&gt;" style="text;html=1;strokeColor=none;fillColor=none;align=center;verticalAlign=middle;whiteSpace=wrap;rounded=0;" vertex="1" parent="1">
          <mxGeometry x="61.02" y="-145.67" width="929.13" height="30" as="geometry" />
        </mxCell>
        <mxCell id="hHE543pLZx1zD03s0N3J-126" value="" style="shape=table;childLayout=tableLayout;startSize=0;fillColor=none;collapsible=0;recursiveResize=0;expand=0;" vertex="1" parent="1">
          <mxGeometry x="51.18" y="-830.7099999999999" width="933.07" height="430.818" as="geometry" />
        </mxCell>
        <mxCell id="hHE543pLZx1zD03s0N3J-127" value="" style="shape=tableRow;horizontal=0;swimlaneHead=0;swimlaneBody=0;top=0;left=0;bottom=0;right=0;dropTarget=0;fontStyle=0;fillColor=#B3B3B3;points=[[0,0.5],[1,0.5]];portConstraint=eastwest;startSize=45;collapsible=0;recursiveResize=0;expand=0;strokeColor=#666666;gradientColor=none;" vertex="1" parent="hHE543pLZx1zD03s0N3J-126">
          <mxGeometry width="933.07" height="110" as="geometry" />
        </mxCell>
        <mxCell id="hHE543pLZx1zD03s0N3J-128" value="SKUID" style="swimlane;swimlaneHead=0;swimlaneBody=0;fontStyle=0;connectable=0;fillColor=#B3B3B3;startSize=40;collapsible=0;recursiveResize=0;expand=0;strokeColor=#666666;gradientColor=none;" vertex="1" parent="hHE543pLZx1zD03s0N3J-127">
          <mxGeometry x="45" width="178" height="110" as="geometry">
            <mxRectangle width="178" height="110" as="alternateBounds" />
          </mxGeometry>
        </mxCell>
        <mxCell id="hHE543pLZx1zD03s0N3J-171" value="&lt;font style=&quot;font-size: 15px&quot;&gt;SKU1111&lt;/font&gt;" style="rounded=0;whiteSpace=wrap;html=1;fontSize=30;fillColor=#f5f5f5;fontColor=#333333;strokeColor=#666666;" vertex="1" parent="hHE543pLZx1zD03s0N3J-128">
          <mxGeometry y="40.71" width="178" height="69.29" as="geometry" />
        </mxCell>
        <mxCell id="hHE543pLZx1zD03s0N3J-129" value="PRODUCT NAME" style="swimlane;swimlaneHead=0;swimlaneBody=0;fontStyle=0;connectable=0;fillColor=#B3B3B3;startSize=40;collapsible=0;recursiveResize=0;expand=0;strokeColor=#666666;gradientColor=none;" vertex="1" parent="hHE543pLZx1zD03s0N3J-127">
          <mxGeometry x="223" width="176" height="110" as="geometry">
            <mxRectangle width="176" height="110" as="alternateBounds" />
          </mxGeometry>
        </mxCell>
        <mxCell id="hHE543pLZx1zD03s0N3J-130" value="UNIT OF MEASURE" style="swimlane;swimlaneHead=0;swimlaneBody=0;fontStyle=0;connectable=0;fillColor=#B3B3B3;startSize=40;collapsible=0;recursiveResize=0;expand=0;strokeColor=#666666;gradientColor=none;" vertex="1" parent="hHE543pLZx1zD03s0N3J-127">
          <mxGeometry x="399" width="179" height="110" as="geometry">
            <mxRectangle width="179" height="110" as="alternateBounds" />
          </mxGeometry>
        </mxCell>
        <mxCell id="hHE543pLZx1zD03s0N3J-131" value="CURRENT INVENTORY QTY" style="swimlane;swimlaneHead=0;swimlaneBody=0;fontStyle=0;connectable=0;startSize=40;collapsible=0;recursiveResize=0;expand=0;fillColor=#B3B3B3;strokeColor=#666666;gradientColor=none;" vertex="1" parent="hHE543pLZx1zD03s0N3J-127">
          <mxGeometry x="578" width="178" height="110" as="geometry">
            <mxRectangle width="178" height="110" as="alternateBounds" />
          </mxGeometry>
        </mxCell>
        <mxCell id="hHE543pLZx1zD03s0N3J-132" value="NEW ORDER QTY" style="swimlane;swimlaneHead=0;swimlaneBody=0;fontStyle=0;connectable=0;fillColor=#B3B3B3;startSize=40;collapsible=0;recursiveResize=0;expand=0;strokeColor=#666666;gradientColor=none;" vertex="1" parent="hHE543pLZx1zD03s0N3J-127">
          <mxGeometry x="756" width="177" height="110" as="geometry">
            <mxRectangle width="177" height="110" as="alternateBounds" />
          </mxGeometry>
        </mxCell>
        <mxCell id="hHE543pLZx1zD03s0N3J-133" value="" style="shape=tableRow;horizontal=0;swimlaneHead=0;swimlaneBody=0;top=0;left=0;bottom=0;right=0;dropTarget=0;fontStyle=0;fillColor=#B3B3B3;points=[[0,0.5],[1,0.5]];portConstraint=eastwest;startSize=45;collapsible=0;recursiveResize=0;expand=0;strokeColor=#666666;gradientColor=none;" vertex="1" parent="hHE543pLZx1zD03s0N3J-126">
          <mxGeometry y="110" width="933.07" height="79" as="geometry" />
        </mxCell>
        <mxCell id="hHE543pLZx1zD03s0N3J-134" value="" style="swimlane;swimlaneHead=0;swimlaneBody=0;fontStyle=0;connectable=0;fillColor=#eeeeee;startSize=0;collapsible=0;recursiveResize=0;expand=0;strokeColor=#36393d;" vertex="1" parent="hHE543pLZx1zD03s0N3J-133">
          <mxGeometry x="45" width="178" height="79" as="geometry">
            <mxRectangle width="178" height="79" as="alternateBounds" />
          </mxGeometry>
        </mxCell>
        <mxCell id="hHE543pLZx1zD03s0N3J-172" value="&lt;font style=&quot;font-size: 15px&quot;&gt;SKU1111&lt;/font&gt;" style="rounded=0;whiteSpace=wrap;html=1;fontSize=30;fillColor=#f5f5f5;fontColor=#333333;strokeColor=#666666;" vertex="1" parent="hHE543pLZx1zD03s0N3J-134">
          <mxGeometry width="178" height="79" as="geometry" />
        </mxCell>
        <mxCell id="hHE543pLZx1zD03s0N3J-135" value="" style="swimlane;swimlaneHead=0;swimlaneBody=0;fontStyle=0;connectable=0;fillColor=none;startSize=0;collapsible=0;recursiveResize=0;expand=0;" vertex="1" parent="hHE543pLZx1zD03s0N3J-133">
          <mxGeometry x="223" width="176" height="79" as="geometry">
            <mxRectangle width="176" height="79" as="alternateBounds" />
          </mxGeometry>
        </mxCell>
        <mxCell id="hHE543pLZx1zD03s0N3J-136" value="" style="swimlane;swimlaneHead=0;swimlaneBody=0;fontStyle=0;connectable=0;fillColor=none;startSize=0;collapsible=0;recursiveResize=0;expand=0;" vertex="1" parent="hHE543pLZx1zD03s0N3J-133">
          <mxGeometry x="399" width="179" height="79" as="geometry">
            <mxRectangle width="179" height="79" as="alternateBounds" />
          </mxGeometry>
        </mxCell>
        <mxCell id="hHE543pLZx1zD03s0N3J-137" value="" style="swimlane;swimlaneHead=0;swimlaneBody=0;fontStyle=0;connectable=0;fillColor=none;startSize=0;collapsible=0;recursiveResize=0;expand=0;" vertex="1" parent="hHE543pLZx1zD03s0N3J-133">
          <mxGeometry x="578" width="178" height="79" as="geometry">
            <mxRectangle width="178" height="79" as="alternateBounds" />
          </mxGeometry>
        </mxCell>
        <mxCell id="hHE543pLZx1zD03s0N3J-138" value="" style="swimlane;swimlaneHead=0;swimlaneBody=0;fontStyle=0;connectable=0;fillColor=none;startSize=0;collapsible=0;recursiveResize=0;expand=0;" vertex="1" parent="hHE543pLZx1zD03s0N3J-133">
          <mxGeometry x="756" width="177" height="79" as="geometry">
            <mxRectangle width="177" height="79" as="alternateBounds" />
          </mxGeometry>
        </mxCell>
        <mxCell id="hHE543pLZx1zD03s0N3J-139" value="" style="shape=tableRow;horizontal=0;swimlaneHead=0;swimlaneBody=0;top=0;left=0;bottom=0;right=0;dropTarget=0;fontStyle=0;fillColor=#B3B3B3;points=[[0,0.5],[1,0.5]];portConstraint=eastwest;startSize=45;collapsible=0;recursiveResize=0;expand=0;strokeColor=#666666;gradientColor=none;" vertex="1" parent="hHE543pLZx1zD03s0N3J-126">
          <mxGeometry y="189" width="933.07" height="81" as="geometry" />
        </mxCell>
        <mxCell id="hHE543pLZx1zD03s0N3J-140" value="" style="swimlane;swimlaneHead=0;swimlaneBody=0;fontStyle=0;connectable=0;fillColor=default;startSize=0;collapsible=0;recursiveResize=0;expand=0;strokeColor=#666666;fontColor=#333333;" vertex="1" parent="hHE543pLZx1zD03s0N3J-139">
          <mxGeometry x="45" width="178" height="81" as="geometry">
            <mxRectangle width="178" height="81" as="alternateBounds" />
          </mxGeometry>
        </mxCell>
        <mxCell id="hHE543pLZx1zD03s0N3J-173" value="&lt;font style=&quot;font-size: 15px&quot;&gt;SKU1111&lt;/font&gt;" style="rounded=0;whiteSpace=wrap;html=1;fontSize=30;fillColor=#f5f5f5;fontColor=#333333;strokeColor=#666666;" vertex="1" parent="hHE543pLZx1zD03s0N3J-140">
          <mxGeometry width="178" height="81" as="geometry" />
        </mxCell>
        <mxCell id="hHE543pLZx1zD03s0N3J-141" value="" style="swimlane;swimlaneHead=0;swimlaneBody=0;fontStyle=0;connectable=0;fillColor=none;startSize=0;collapsible=0;recursiveResize=0;expand=0;" vertex="1" parent="hHE543pLZx1zD03s0N3J-139">
          <mxGeometry x="223" width="176" height="81" as="geometry">
            <mxRectangle width="176" height="81" as="alternateBounds" />
          </mxGeometry>
        </mxCell>
        <mxCell id="hHE543pLZx1zD03s0N3J-142" value="" style="swimlane;swimlaneHead=0;swimlaneBody=0;fontStyle=0;connectable=0;fillColor=none;startSize=0;collapsible=0;recursiveResize=0;expand=0;" vertex="1" parent="hHE543pLZx1zD03s0N3J-139">
          <mxGeometry x="399" width="179" height="81" as="geometry">
            <mxRectangle width="179" height="81" as="alternateBounds" />
          </mxGeometry>
        </mxCell>
        <mxCell id="hHE543pLZx1zD03s0N3J-143" value="" style="swimlane;swimlaneHead=0;swimlaneBody=0;fontStyle=0;connectable=0;fillColor=none;startSize=0;collapsible=0;recursiveResize=0;expand=0;" vertex="1" parent="hHE543pLZx1zD03s0N3J-139">
          <mxGeometry x="578" width="178" height="81" as="geometry">
            <mxRectangle width="178" height="81" as="alternateBounds" />
          </mxGeometry>
        </mxCell>
        <mxCell id="hHE543pLZx1zD03s0N3J-144" value="" style="swimlane;swimlaneHead=0;swimlaneBody=0;fontStyle=0;connectable=0;fillColor=none;startSize=0;collapsible=0;recursiveResize=0;expand=0;" vertex="1" parent="hHE543pLZx1zD03s0N3J-139">
          <mxGeometry x="756" width="177" height="81" as="geometry">
            <mxRectangle width="177" height="81" as="alternateBounds" />
          </mxGeometry>
        </mxCell>
        <mxCell id="hHE543pLZx1zD03s0N3J-145" value="" style="shape=tableRow;horizontal=0;swimlaneHead=0;swimlaneBody=0;top=0;left=0;bottom=0;right=0;dropTarget=0;fontStyle=0;fillColor=#B3B3B3;points=[[0,0.5],[1,0.5]];portConstraint=eastwest;startSize=45;collapsible=0;recursiveResize=0;expand=0;strokeColor=#666666;gradientColor=none;" vertex="1" parent="hHE543pLZx1zD03s0N3J-126">
          <mxGeometry y="270" width="933.07" height="81" as="geometry" />
        </mxCell>
        <mxCell id="hHE543pLZx1zD03s0N3J-146" value="" style="swimlane;swimlaneHead=0;swimlaneBody=0;fontStyle=0;connectable=0;fillColor=#eeeeee;startSize=0;collapsible=0;recursiveResize=0;expand=0;strokeColor=#36393d;" vertex="1" parent="hHE543pLZx1zD03s0N3J-145">
          <mxGeometry x="45" width="178" height="81" as="geometry">
            <mxRectangle width="178" height="81" as="alternateBounds" />
          </mxGeometry>
        </mxCell>
        <mxCell id="hHE543pLZx1zD03s0N3J-174" value="&lt;font style=&quot;font-size: 15px&quot;&gt;SKU1111&lt;/font&gt;" style="rounded=0;whiteSpace=wrap;html=1;fontSize=30;fillColor=#f5f5f5;fontColor=#333333;strokeColor=#666666;" vertex="1" parent="hHE543pLZx1zD03s0N3J-146">
          <mxGeometry x="-0.01" width="178" height="80.99" as="geometry" />
        </mxCell>
        <mxCell id="hHE543pLZx1zD03s0N3J-147" value="" style="swimlane;swimlaneHead=0;swimlaneBody=0;fontStyle=0;connectable=0;fillColor=none;startSize=0;collapsible=0;recursiveResize=0;expand=0;" vertex="1" parent="hHE543pLZx1zD03s0N3J-145">
          <mxGeometry x="223" width="176" height="81" as="geometry">
            <mxRectangle width="176" height="81" as="alternateBounds" />
          </mxGeometry>
        </mxCell>
        <mxCell id="hHE543pLZx1zD03s0N3J-148" value="" style="swimlane;swimlaneHead=0;swimlaneBody=0;fontStyle=0;connectable=0;fillColor=none;startSize=0;collapsible=0;recursiveResize=0;expand=0;" vertex="1" parent="hHE543pLZx1zD03s0N3J-145">
          <mxGeometry x="399" width="179" height="81" as="geometry">
            <mxRectangle width="179" height="81" as="alternateBounds" />
          </mxGeometry>
        </mxCell>
        <mxCell id="hHE543pLZx1zD03s0N3J-149" value="" style="swimlane;swimlaneHead=0;swimlaneBody=0;fontStyle=0;connectable=0;fillColor=none;startSize=0;collapsible=0;recursiveResize=0;expand=0;" vertex="1" parent="hHE543pLZx1zD03s0N3J-145">
          <mxGeometry x="578" width="178" height="81" as="geometry">
            <mxRectangle width="178" height="81" as="alternateBounds" />
          </mxGeometry>
        </mxCell>
        <mxCell id="hHE543pLZx1zD03s0N3J-150" value="" style="swimlane;swimlaneHead=0;swimlaneBody=0;fontStyle=0;connectable=0;fillColor=none;startSize=0;collapsible=0;recursiveResize=0;expand=0;" vertex="1" parent="hHE543pLZx1zD03s0N3J-145">
          <mxGeometry x="756" width="177" height="81" as="geometry">
            <mxRectangle width="177" height="81" as="alternateBounds" />
          </mxGeometry>
        </mxCell>
        <mxCell id="hHE543pLZx1zD03s0N3J-151" value="" style="shape=tableRow;horizontal=0;swimlaneHead=0;swimlaneBody=0;top=0;left=0;bottom=0;right=0;dropTarget=0;fontStyle=0;fillColor=#B3B3B3;points=[[0,0.5],[1,0.5]];portConstraint=eastwest;startSize=45;collapsible=0;recursiveResize=0;expand=0;strokeColor=#666666;gradientColor=none;" vertex="1" parent="hHE543pLZx1zD03s0N3J-126">
          <mxGeometry y="351" width="933.07" height="80" as="geometry" />
        </mxCell>
        <mxCell id="hHE543pLZx1zD03s0N3J-152" value="" style="swimlane;swimlaneHead=0;swimlaneBody=0;fontStyle=0;connectable=0;fillColor=#eeeeee;startSize=0;collapsible=0;recursiveResize=0;expand=0;strokeColor=#36393d;" vertex="1" parent="hHE543pLZx1zD03s0N3J-151">
          <mxGeometry x="45" width="178" height="80" as="geometry">
            <mxRectangle width="178" height="80" as="alternateBounds" />
          </mxGeometry>
        </mxCell>
        <mxCell id="hHE543pLZx1zD03s0N3J-175" value="&lt;font style=&quot;font-size: 15px&quot;&gt;SKU1111&lt;/font&gt;" style="rounded=0;whiteSpace=wrap;html=1;fontSize=30;fillColor=#f5f5f5;fontColor=#333333;strokeColor=#666666;" vertex="1" parent="hHE543pLZx1zD03s0N3J-152">
          <mxGeometry width="178" height="80" as="geometry" />
        </mxCell>
        <mxCell id="hHE543pLZx1zD03s0N3J-153" value="" style="swimlane;swimlaneHead=0;swimlaneBody=0;fontStyle=0;connectable=0;fillColor=none;startSize=0;collapsible=0;recursiveResize=0;expand=0;" vertex="1" parent="hHE543pLZx1zD03s0N3J-151">
          <mxGeometry x="223" width="176" height="80" as="geometry">
            <mxRectangle width="176" height="80" as="alternateBounds" />
          </mxGeometry>
        </mxCell>
        <mxCell id="hHE543pLZx1zD03s0N3J-154" value="" style="swimlane;swimlaneHead=0;swimlaneBody=0;fontStyle=0;connectable=0;fillColor=none;startSize=0;collapsible=0;recursiveResize=0;expand=0;" vertex="1" parent="hHE543pLZx1zD03s0N3J-151">
          <mxGeometry x="399" width="179" height="80" as="geometry">
            <mxRectangle width="179" height="80" as="alternateBounds" />
          </mxGeometry>
        </mxCell>
        <mxCell id="hHE543pLZx1zD03s0N3J-155" value="" style="swimlane;swimlaneHead=0;swimlaneBody=0;fontStyle=0;connectable=0;fillColor=none;startSize=0;collapsible=0;recursiveResize=0;expand=0;" vertex="1" parent="hHE543pLZx1zD03s0N3J-151">
          <mxGeometry x="578" width="178" height="80" as="geometry">
            <mxRectangle width="178" height="80" as="alternateBounds" />
          </mxGeometry>
        </mxCell>
        <mxCell id="hHE543pLZx1zD03s0N3J-156" value="" style="swimlane;swimlaneHead=0;swimlaneBody=0;fontStyle=0;connectable=0;fillColor=#f5f5f5;startSize=0;collapsible=0;recursiveResize=0;expand=0;strokeColor=#666666;fontColor=#333333;" vertex="1" parent="hHE543pLZx1zD03s0N3J-151">
          <mxGeometry x="756" width="177" height="80" as="geometry">
            <mxRectangle width="177" height="80" as="alternateBounds" />
          </mxGeometry>
        </mxCell>
      </root>
    </mxGraphModel>
  </diagram>
</mxfile>
